<svg width="41" height="40" viewBox="0 0 41 40" fill="none" xmlns="http://www.w3.org/2000/svg">
<path d="M20.418 39.8398C9.53906 39.8398 0.496094 30.8164 0.496094 19.918C0.496094 9.03906 9.51953 -0.00390625 20.3984 -0.00390625C31.2969 -0.00390625 40.3398 9.03906 40.3398 19.918C40.3398 30.8164 31.3164 39.8398 20.418 39.8398ZM11.5898 21.3047C11.5898 21.8125 11.9805 22.1836 12.5078 22.1836H19.3438L15.6914 31.9688C15.2031 33.2578 16.5898 33.9609 17.4297 32.9258L28.4648 19.0781C28.6797 18.8242 28.7969 18.5312 28.7969 18.2773C28.7969 17.7695 28.4062 17.3984 27.8789 17.3984H21.043L24.6953 7.61328C25.1836 6.32422 23.7969 5.62109 22.957 6.65625L11.9219 20.5234C11.707 20.7578 11.5898 21.0508 11.5898 21.3047Z" fill="#136F77"/>
</svg>
