<svg width="124" height="34" viewBox="0 0 124 34" fill="none" xmlns="http://www.w3.org/2000/svg">
<path d="M21.8206 16.4268L35.5282 9.95378H39.1835C39.2908 9.95384 39.3967 9.92926 39.4929 9.88193C39.5892 9.8346 39.6734 9.76579 39.7388 9.6808C39.8043 9.59582 39.8494 9.49693 39.8707 9.39176C39.8919 9.28658 39.8887 9.17794 39.8613 9.07421L37.7556 1.33327C37.7161 1.1847 37.6286 1.05336 37.5067 0.959697C37.3848 0.866036 37.2354 0.815314 37.0817 0.81543H2.93851C2.78008 0.815752 2.62643 0.869765 2.50264 0.968655C2.37886 1.06754 2.29225 1.20547 2.25694 1.35992L0.51685 9.10467C0.49399 9.20673 0.494395 9.31261 0.518034 9.41448C0.541673 9.51636 0.58794 9.6116 0.653404 9.69316C0.718868 9.77472 0.801851 9.84049 0.896198 9.88561C0.990546 9.93072 1.09384 9.95402 1.19842 9.95378H16.7526L8.75659 12.7486C8.65226 12.8106 8.56582 12.8986 8.50574 13.0041C8.44567 13.1096 8.41402 13.2288 8.41391 13.3502V20.8741C8.41399 21.0104 8.45361 21.1437 8.52795 21.2579C8.60229 21.3721 8.70817 21.4623 8.83275 21.5176L13.2496 23.4214C13.3823 23.4787 13.4938 23.5758 13.5689 23.6993C13.6439 23.8227 13.6787 23.9665 13.6685 24.1106L13.063 33.1804C13.0543 33.3054 13.0794 33.4305 13.1357 33.5424C13.1921 33.6544 13.2776 33.749 13.3832 33.8165C13.4888 33.8839 13.6107 33.9216 13.7359 33.9256C13.8612 33.9296 13.9852 33.8997 14.0949 33.8391L25.9862 27.3661C26.0979 27.3094 26.1922 27.2235 26.2592 27.1176C26.3262 27.0118 26.3634 26.8898 26.367 26.7645L26.485 19.45C26.4872 19.3018 26.4423 19.1567 26.3567 19.0356C26.2712 18.9145 26.1495 18.8236 26.009 18.7761L21.8777 17.1388C21.8111 17.1089 21.7538 17.0617 21.7117 17.002C21.6696 16.9423 21.6443 16.8725 21.6385 16.7997C21.6326 16.7269 21.6465 16.6539 21.6785 16.5883C21.7106 16.5227 21.7596 16.4669 21.8206 16.4268Z" fill="white"/>
<path d="M63.0008 8.72413H57.9633L54.0528 31.075H48.1662L52.0767 8.72413H47.043L47.934 3.65234H63.8918L63.0008 8.72413Z" fill="white"/>
<path d="M71.6784 31.0899L71.5603 25.9381H65.1711L63.115 31.0899H56.9199L68.8112 3.6748H76.2704L77.7059 31.0899H71.6784ZM71.4042 9.59189H71.2519L66.717 21.3499H71.6365L71.4042 9.59189Z" fill="white"/>
<path d="M98.4039 9.92373C98.4105 10.7788 98.282 11.6295 98.0231 12.4444C97.796 13.1522 97.4552 13.8184 97.0141 14.4168C96.6088 14.9731 96.1163 15.4604 95.5558 15.8599C95.0038 16.246 94.3966 16.5464 93.7548 16.7508L93.7928 16.827C94.2635 16.959 94.7088 17.1688 95.1103 17.4476C95.5465 17.7461 95.9322 18.1124 96.2526 18.5328C96.5992 18.9931 96.8668 19.5078 97.0446 20.0559C97.2474 20.6868 97.3465 21.3465 97.3378 22.0092C97.3769 23.4244 97.0916 24.8297 96.5039 26.1176C95.9888 27.2024 95.2414 28.1604 94.3145 28.9239C93.4143 29.6585 92.3797 30.2107 91.2684 30.5497C90.1594 30.8978 89.0038 31.075 87.8415 31.0752H78.7793L83.5427 3.66016H91.5387C92.3571 3.66269 93.1714 3.77409 93.9604 3.99142C94.7561 4.20416 95.5042 4.56594 96.165 5.05756C96.8454 5.57299 97.4022 6.23383 97.7947 6.99185C98.2446 7.90616 98.4642 8.91658 98.4344 9.93516M91.6225 22.0092C91.6225 20.9773 91.3217 20.2463 90.7125 19.8198C90.13 19.4049 89.4324 19.1825 88.7173 19.1839H86.3565L85.1533 26.0758H87.5559C88.6258 26.1207 89.6722 25.7542 90.4802 25.0515C91.2417 24.3661 91.6225 23.3508 91.6225 22.0054M92.9399 11.1231C92.9647 10.7723 92.909 10.4204 92.777 10.0944C92.6451 9.76844 92.4403 9.47692 92.1784 9.24216C91.6403 8.80926 90.9648 8.58364 90.2746 8.60629H88.2223L87.1371 14.8013H89.3455C89.7806 14.7987 90.2125 14.7267 90.6249 14.5881C91.047 14.4496 91.4359 14.2254 91.7672 13.9294C92.1195 13.6089 92.4032 13.2203 92.6011 12.7871C92.8307 12.2631 92.9425 11.6951 92.9285 11.1231" fill="white"/>
<path d="M111.419 31.075H98.0537L102.817 3.65234H108.784L104.987 25.573H112.386L111.419 31.075Z" fill="white"/>
<path d="M118.737 31.075H112.732L117.496 3.65234H123.5L118.737 31.075Z" fill="white"/>
</svg>
