<svg width="37" height="45" viewBox="0 0 37 45" fill="none" xmlns="http://www.w3.org/2000/svg">
<path d="M17.457 9.77734C17.2227 9.77734 17.0859 9.64062 17.0469 9.42578C16.4414 6.16406 16.4805 6.125 13.082 5.44141C12.8477 5.40234 12.7109 5.26562 12.7109 5.03125C12.7109 4.79688 12.8477 4.66016 13.082 4.62109C16.4805 3.9375 16.3633 3.85938 17.0469 0.636719C17.0859 0.421875 17.2227 0.285156 17.457 0.285156C17.6914 0.285156 17.8086 0.421875 17.8672 0.636719C18.5508 3.85938 18.4336 3.9375 21.832 4.62109C22.0469 4.66016 22.2031 4.79688 22.2031 5.03125C22.2031 5.26562 22.0469 5.40234 21.832 5.44141C18.4336 6.08594 18.4531 6.16406 17.8672 9.42578C17.8086 9.64062 17.6914 9.77734 17.457 9.77734ZM8.00391 23.2148C7.65234 23.2148 7.39844 22.9805 7.33984 22.5898C6.71484 17.375 6.46094 17.2383 1.14844 16.3789C0.738281 16.3203 0.484375 16.1055 0.484375 15.7148C0.484375 15.3633 0.738281 15.1289 1.07031 15.0508C6.42188 14.0547 6.71484 14.0742 7.33984 8.83984C7.39844 8.46875 7.65234 8.21484 8.00391 8.21484C8.375 8.21484 8.62891 8.46875 8.66797 8.82031C9.35156 14.1328 9.54688 14.3086 14.9375 15.0508C15.2695 15.1094 15.5234 15.3633 15.5234 15.7148C15.5234 16.0859 15.2695 16.3203 14.9375 16.3789C9.54688 17.4141 9.37109 17.4141 8.66797 22.6289C8.62891 22.9805 8.375 23.2148 8.00391 23.2148ZM21.2461 44.8359C20.7383 44.8359 20.3672 44.4648 20.2891 43.9375C18.8242 33.2539 17.3594 31.8281 6.79297 30.4414C6.24609 30.3828 5.875 29.9727 5.875 29.4648C5.875 28.957 6.24609 28.5664 6.79297 28.4883C17.3789 27.3164 18.8828 25.6953 20.2891 14.9922C20.3672 14.4648 20.7383 14.1133 21.2461 14.1133C21.7539 14.1133 22.125 14.4648 22.2031 14.9922C23.5898 25.6953 25.1133 27.3164 35.6992 28.4883C36.2461 28.5664 36.6172 28.957 36.6172 29.4648C36.6172 29.9727 36.2461 30.3828 35.6992 30.4414C25.1133 31.6133 23.5898 33.2344 22.2031 43.9375C22.125 44.4648 21.7539 44.8359 21.2461 44.8359Z" fill="white"/>
</svg>
