<svg width="48" height="42" viewBox="0 0 48 42" fill="none" xmlns="http://www.w3.org/2000/svg">
<path d="M27.918 40.8203C25.1445 40.8203 22.5273 40.2539 20.1055 39.1797C20.9453 38.2031 21.6289 37.1094 21.8828 36.3867C23.7383 37.1484 25.9062 37.5391 27.8984 37.5391C32.7617 37.5391 37.3125 35.3711 40.2422 32.0312C38.3281 29.7461 33.7969 27.5586 27.8984 27.5586C26.0234 27.5586 24.3047 27.7734 22.7617 28.1641C21.5117 22.7344 16.4727 18.4961 10.5156 18.4961C9.69531 18.4961 8.89453 18.5742 8.13281 18.7305C9.24609 8.82812 17.7422 0.976562 27.8984 0.976562C38.7773 0.976562 47.8398 10.0195 47.8398 20.8984C47.8398 31.7969 38.7969 40.8203 27.918 40.8203ZM27.8984 24.2383C31.6484 24.2773 34.5977 21.0742 34.5977 16.875C34.5977 12.9297 31.6289 9.64844 27.8984 9.64844C24.1484 9.64844 21.1602 12.9297 21.1992 16.875C21.2188 21.0742 24.1289 24.1992 27.8984 24.2383ZM10.5156 41.0352C5.08594 41.0352 0.59375 36.582 0.59375 31.1133C0.59375 25.6836 5.08594 21.1914 10.5156 21.1914C15.9648 21.1914 20.4375 25.6641 20.4375 31.1133C20.4375 36.543 15.8867 41.0352 10.5156 41.0352ZM9.32422 36.9531C9.75391 36.9531 10.1641 36.7773 10.3594 36.5039L16.4141 28.0859C16.5898 27.832 16.6875 27.5586 16.6875 27.3438C16.6875 26.6602 16.1016 26.1328 15.457 26.1328C15.0078 26.1328 14.6562 26.3672 14.4219 26.6797L9.28516 33.8281L6.51172 30.8398C6.31641 30.6055 6.00391 30.4102 5.57422 30.4102C4.91016 30.4102 4.36328 30.9375 4.36328 31.6406C4.36328 31.9141 4.46094 32.2852 4.61719 32.4219L8.34766 36.543C8.60156 36.8164 9.01172 36.9531 9.32422 36.9531Z" fill="white"/>
</svg>
