<svg width="41" height="33" viewBox="0 0 41 33" fill="none" xmlns="http://www.w3.org/2000/svg">
<path d="M5.23828 9.04688C4.45703 9.04688 3.94922 8.61719 3.94922 7.73828V2.52344H3.91016L3.01172 3.12891C2.67969 3.36328 2.5625 3.40234 2.30859 3.40234C1.85938 3.40234 1.46875 3.05078 1.46875 2.54297C1.46875 2.13281 1.68359 1.87891 2.07422 1.60547L3.46094 0.648438C3.94922 0.316406 4.37891 0.0820312 5.0625 0.0820312C5.92188 0.0820312 6.50781 0.609375 6.50781 1.42969V7.73828C6.50781 8.61719 5.98047 9.04688 5.23828 9.04688ZM12.9922 6.68359C12.1133 6.68359 11.4102 6 11.4102 5.12109C11.4102 4.22266 12.1133 3.53906 12.9922 3.53906H38.7539C39.6328 3.53906 40.3359 4.22266 40.3359 5.12109C40.3359 6 39.6328 6.68359 38.7539 6.68359H12.9922ZM2.09375 20.8242C1.44922 20.8242 1.01953 20.3945 1.01953 19.7891C1.01953 19.3594 1.17578 19.0078 1.56641 18.6953L4.125 16.5859C5.14062 15.7852 5.375 15.375 5.375 14.9062C5.375 14.3594 4.96484 13.9883 4.39844 13.9883C3.85156 13.9883 3.5 14.2422 3.22656 14.7109C2.95312 15.1602 2.66016 15.2969 2.21094 15.2969C1.54688 15.2969 1.13672 14.9648 1.13672 14.3398C1.13672 13.0898 2.48438 12.1133 4.35938 12.1133C6.46875 12.1133 7.77734 13.168 7.77734 14.7305C7.77734 15.8828 7.25 16.5078 5.92188 17.6016L4.32031 18.8906V18.9492H7.11328C7.66016 18.9492 8.05078 19.3203 8.05078 19.9062C8.05078 20.4531 7.64062 20.8242 7.11328 20.8242H2.09375ZM12.9922 18.5C12.1133 18.5 11.4102 17.7969 11.4102 16.918C11.4102 16.0391 12.1133 15.3555 12.9922 15.3555H38.7539C39.6328 15.3555 40.3359 16.0391 40.3359 16.918C40.3359 17.7969 39.6328 18.5 38.7539 18.5H12.9922ZM4.39844 32.9922C2.81641 32.9922 0.980469 32.2695 0.980469 30.9219C0.980469 30.3164 1.42969 29.9453 2.05469 29.9453C2.42578 29.9453 2.62109 30.1016 2.85547 30.3164C3.22656 30.6875 3.71484 31.0781 4.39844 31.0781C5.0625 31.0781 5.55078 30.6875 5.55078 30.1602C5.55078 29.5547 5.08203 29.2617 4.20312 29.2617H3.94922C3.38281 29.2617 3.05078 28.9492 3.05078 28.4219C3.05078 27.8555 3.40234 27.582 3.94922 27.582H4.16406C4.96484 27.582 5.43359 27.3086 5.43359 26.7617C5.43359 26.1758 4.98438 25.8828 4.37891 25.8828C3.89062 25.8828 3.53906 26.0391 3.08984 26.5273C2.81641 26.8203 2.62109 26.9961 2.19141 26.9961C1.58594 26.9961 1.19531 26.6055 1.19531 26.0586C1.19531 24.7695 2.85547 24.0469 4.37891 24.0469C6.3125 24.0469 7.75781 24.8672 7.75781 26.3516C7.75781 27.4844 6.97656 28.1484 6 28.3242V28.3828C7.34766 28.5 8.08984 29.2422 8.08984 30.3164C8.08984 31.957 6.72266 32.9922 4.39844 32.9922ZM12.9922 30.2969C12.1133 30.2969 11.4102 29.6133 11.4102 28.7344C11.4102 27.8359 12.1133 27.1523 12.9922 27.1523H38.7539C39.6328 27.1523 40.3359 27.8359 40.3359 28.7344C40.3359 29.6133 39.6328 30.2969 38.7539 30.2969H12.9922Z" fill="white"/>
</svg>
