<svg width="45" height="42" viewBox="0 0 45 42" fill="none" xmlns="http://www.w3.org/2000/svg">
<path d="M12.582 41.4805C11.4688 41.4805 10.8438 40.6797 10.8438 39.4688V33.7852H9.92578C4.10547 33.7852 0.980469 30.6016 0.980469 24.8594V9.89844C0.980469 4.15625 4.10547 0.953125 9.92578 0.953125H35.082C40.9023 0.953125 44.0273 4.17578 44.0273 9.89844V24.8594C44.0273 30.582 40.9023 33.8242 35.082 33.8047L21.8789 33.7852L14.8281 40.2305C13.9102 41.0898 13.3438 41.4805 12.582 41.4805ZM13.1094 15.3281C13.1094 17.5156 14.4961 19.2539 16.7031 19.2539C17.5039 19.2539 18.3047 19.1172 18.8125 18.4922H18.9688C18.2656 20.0742 16.7812 21.1094 15.5117 21.4414C14.7695 21.6172 14.5742 21.9492 14.5742 22.418C14.5742 22.9062 14.9844 23.3164 15.5312 23.3164C17.5039 23.3164 21.4492 20.9727 21.4492 16.0312C21.4492 13.3945 19.75 11.3633 17.2305 11.3633C14.8867 11.3633 13.1094 13.0039 13.1094 15.3281ZM23.5977 15.3281C23.5977 17.5156 24.9844 19.2539 27.1719 19.2539C27.9922 19.2539 28.793 19.1172 29.3008 18.4922H29.457C28.7539 20.0742 27.2695 21.1094 25.9805 21.4414C25.2578 21.6172 25.0625 21.9492 25.0625 22.418C25.0625 22.9062 25.4727 23.3164 26.0195 23.3164C27.9922 23.3164 31.9375 20.9727 31.9375 16.0312C31.9375 13.3945 30.2188 11.3633 27.6992 11.3633C25.3555 11.3633 23.5977 13.0039 23.5977 15.3281Z" fill="white"/>
</svg>
