<svg width="40" height="40" viewBox="0 0 40 40" fill="none" xmlns="http://www.w3.org/2000/svg">
<path d="M19.918 39.8398C9.03906 39.8398 -0.00390625 30.8164 -0.00390625 19.918C-0.00390625 9.03906 9.01953 -0.00390625 19.8984 -0.00390625C30.7969 -0.00390625 39.8398 9.03906 39.8398 19.918C39.8398 30.8164 30.8164 39.8398 19.918 39.8398ZM11.0898 21.3047C11.0898 21.8125 11.4805 22.1836 12.0078 22.1836H18.8438L15.1914 31.9688C14.7031 33.2578 16.0898 33.9609 16.9297 32.9258L27.9648 19.0781C28.1797 18.8242 28.2969 18.5312 28.2969 18.2773C28.2969 17.7695 27.9062 17.3984 27.3789 17.3984H20.543L24.1953 7.61328C24.6836 6.32422 23.2969 5.62109 22.457 6.65625L11.4219 20.5234C11.207 20.7578 11.0898 21.0508 11.0898 21.3047Z" fill="white"/>
</svg>
