<svg width="39" height="40" viewBox="0 0 39 40" fill="none" xmlns="http://www.w3.org/2000/svg">
<path d="M37.1406 13.2383C36.1445 13.2383 35.5781 12.6523 35.5781 11.6367V7.02734C35.5781 4.99609 34.4648 3.96094 32.5312 3.96094H27.8047C26.7891 3.96094 26.2227 3.39453 26.2227 2.37891C26.2227 1.36328 26.7891 0.816406 27.8047 0.816406H32.5898C36.6719 0.816406 38.7227 2.82812 38.7227 6.85156V11.6367C38.7227 12.6523 38.1758 13.2383 37.1406 13.2383ZM2.04297 13.2383C1.04688 13.2383 0.480469 12.6523 0.480469 11.6367V6.85156C0.480469 2.82812 2.53125 0.816406 6.61328 0.816406H11.3789C12.4141 0.816406 12.9805 1.36328 12.9805 2.37891C12.9805 3.39453 12.4141 3.96094 11.3789 3.96094H6.65234C4.69922 3.96094 3.625 4.99609 3.625 7.02734V11.6367C3.625 12.6523 3.07812 13.2383 2.04297 13.2383ZM11.0859 19.0781C10.5977 19.0781 10.2266 18.707 10.2266 18.2383V11.4219C10.2266 10.9531 10.5977 10.5625 11.0859 10.5625H17.8828C18.3711 10.5625 18.7422 10.9531 18.7422 11.4219V18.2383C18.7422 18.707 18.3711 19.0781 17.8828 19.0781H11.0859ZM21.2812 19.0781C20.793 19.0781 20.4219 18.707 20.4219 18.2383V11.4219C20.4219 10.9531 20.793 10.5625 21.2812 10.5625H28.0781C28.5664 10.5625 28.9375 10.9531 28.9375 11.4219V18.2383C28.9375 18.707 28.5664 19.0781 28.0781 19.0781H21.2812ZM11.9258 17.3789H17.043V12.2617H11.9258V17.3789ZM22.1211 17.3789H27.2383V12.2617H22.1211V17.3789ZM13.4102 15.8945V13.7461H15.5586V15.8945H13.4102ZM23.625 15.8945V13.7461H25.7539V15.8945H23.625ZM11.0859 29.293C10.5977 29.293 10.2266 28.9219 10.2266 28.4336V21.6367C10.2266 21.1484 10.5977 20.7773 11.0859 20.7773H17.8828C18.3711 20.7773 18.7422 21.1484 18.7422 21.6367V28.4336C18.7422 28.9219 18.3711 29.293 17.8828 29.293H11.0859ZM20.6758 23.1406V21.0117H22.8047V23.1406H20.6758ZM26.5547 23.1406V21.0117H28.6836V23.1406H26.5547ZM11.9258 27.5938H17.043V22.4766H11.9258V27.5938ZM13.4102 26.0898V23.9609H15.5586V26.0898H13.4102ZM23.6055 26.0898V23.9609H25.7539V26.0898H23.6055ZM6.61328 39.0391C2.53125 39.0391 0.480469 37.0273 0.480469 32.9844V28.2188C0.480469 27.1836 1.02734 26.6172 2.04297 26.6172C3.05859 26.6172 3.625 27.1836 3.625 28.2188V32.8281C3.625 34.8594 4.69922 35.8945 6.65234 35.8945H11.3789C12.4141 35.8945 12.9805 36.4609 12.9805 37.4766C12.9805 38.4727 12.4141 39.0391 11.3789 39.0391H6.61328ZM27.8047 39.0391C26.7891 39.0391 26.2227 38.4727 26.2227 37.4766C26.2227 36.4609 26.7891 35.8945 27.8047 35.8945H32.5312C34.4648 35.8945 35.5781 34.8594 35.5781 32.8281V28.2188C35.5781 27.1836 36.125 26.6172 37.1406 26.6172C38.1562 26.6172 38.7227 27.1836 38.7227 28.2188V32.9844C38.7227 37.0078 36.6719 39.0391 32.5898 39.0391H27.8047ZM20.6758 29.0391V26.9102H22.8047V29.0391H20.6758ZM26.5547 29.0391V26.9102H28.6836V29.0391H26.5547Z" fill="white"/>
</svg>
